<?xml version="1.0" encoding="UTF-8" standalone="no"?>
<!DOCTYPE svg PUBLIC "-//W3C//DTD SVG 1.1//EN" "http://www.w3.org/Graphics/SVG/1.1/DTD/svg11.dtd">
<svg width="100%" height="100%" viewBox="0 0 543 931" version="1.1" xmlns="http://www.w3.org/2000/svg" xmlns:xlink="http://www.w3.org/1999/xlink" xml:space="preserve" xmlns:serif="http://www.serif.com/" style="fill-rule:evenodd;clip-rule:evenodd;stroke-linejoin:round;stroke-miterlimit:2;">
    <g id="Layer-1" serif:id="Layer 1" transform="matrix(4.16667,0,0,4.16667,0,0)">
        <g transform="matrix(1,0,0,1,77.8331,189.948)">
            <path d="M0,-9.477C-24.736,-9.477 -48.614,-6.807 -67.903,-2.386L-67.065,0C-48.312,-3.381 -26.356,-5.503 -2.981,-4.739C12.318,-4.236 26.908,-2.242 40.345,0L42.87,-7.134C29.518,-8.881 15.08,-9.477 0,-9.477" style="fill:rgb(88,94,96);fill-rule:nonzero;"/>
        </g>
        <g transform="matrix(1,0,0,1,32.5928,85.8004)">
            <path d="M0,-38.917C55.307,-72.856 50.141,-76.831 48.057,-79.891L48.212,-79.996C52.247,-76.555 62.311,-61.927 17.078,-33.804C-24.022,-8.248 -26.666,7.648 -8.334,24.068C-3.693,28.225 -2.208,28.799 5.427,33.415L-0.475,41.079C-9.421,35.421 -68.326,4.444 0,-38.917" style="fill:rgb(255,202,56);fill-rule:nonzero;"/>
        </g>
        <g transform="matrix(1,0,0,1,72.8845,131.656)">
            <path d="M0,-33.377C-54.142,-67.342 -49.394,-70.657 -47.34,-73.667L-47.493,-73.775C-51.47,-70.391 -60.914,-55.978 -16.351,-28.321C26.531,-1.706 22.018,15.059 6.21,39.968C6.224,40.135 6.002,40.265 6.013,40.398C27.645,25.671 44.487,-5.472 0,-33.377" style="fill:rgb(92,152,203);fill-rule:nonzero;"/>
        </g>
        <g transform="matrix(1,0,0,1,41.8835,-0.0001)">
            <path d="M0,107.249C-6.761,92.112 -4.023,82.808 27.252,63.535C75.542,33.765 47.119,6.337 39.434,0.095L39.583,0C48.549,5.028 85.589,37.486 35.164,69.108C12.032,83.632 -2.101,92.122 0,107.249" style="fill:rgb(255,202,56);fill-rule:nonzero;"/>
        </g>
        <g transform="matrix(1,0,0,1,84.6778,96.1271)">
            <path d="M0,38.278C-27.785,55.414 -38.135,69.216 -30.028,80.263C-32.405,65.04 -10.853,58.182 11.294,44.158C77.434,2.28 29.792,-35.723 17.213,-41.985L17.004,-41.867C27.812,-34.068 61.633,0.112 0,38.278" style="fill:rgb(85,177,70);fill-rule:nonzero;"/>
        </g>
        <g transform="matrix(1,0,0,1,75.8832,52.6622)">
            <path d="M0,116.304L-0.009,116.144C6.742,101.013 -10.09,83.644 -41.357,64.368C-89.664,34.594 -59.425,6.235 -51.735,-0.007L-53.685,1.428C-64.443,9.493 -100.027,38.959 -49.597,70.584C-26.46,85.106 2.089,101.185 0,116.311" style="fill:rgb(92,152,203);fill-rule:nonzero;"/>
        </g>
        <g transform="matrix(1,0,0,1,58.8698,134.253)">
            <path d="M0,-32.381C51.03,-66.32 45.616,-71.402 43.701,-74.475L43.853,-74.574C47.572,-71.137 58.587,-56.469 16.851,-28.352C-31.512,4.248 -31.372,15.567 -6.173,38.506L-4.205,42.193C-14.931,36.408 -63.164,9.734 0.055,-32.325" style="fill:rgb(85,177,70);fill-rule:nonzero;"/>
        </g>
        <g transform="matrix(1,0,0,1,26.3596,218.573)">
            <path d="M0,-17.559C-4.594,-17.559 -7.928,-13.706 -7.928,-8.779C-7.928,-3.851 -4.594,0.002 0,0.002C4.557,0.002 7.891,-3.851 7.891,-8.779C7.891,-13.706 4.557,-17.559 0,-17.559M0,4.632C-7.706,4.632 -13.597,-1.37 -13.597,-8.779C-13.597,-16.189 -7.706,-22.191 0,-22.191C7.669,-22.191 13.56,-16.189 13.56,-8.779C13.56,-1.37 7.669,4.632 0,4.632" style="fill:rgb(88,94,96);fill-rule:nonzero;"/>
        </g>
        <g transform="matrix(1,0,0,1,60.8273,196.827)">
            <path d="M0,25.934L0,14.82L-11.003,14.82L-11.003,25.934L-16.301,25.934L-16.301,0L-11.003,0L-11.003,10.336L0,10.336L0,0L5.298,0L5.298,25.934L0,25.934Z" style="fill:rgb(88,94,96);fill-rule:nonzero;"/>
        </g>
        <g transform="matrix(1,0,0,1,81.2827,218.684)">
            <path d="M0,-17.782C-1.778,-17.782 -3.372,-16.893 -3.372,-15.189C-3.372,-13.188 -0.927,-12.633 1.074,-11.928C4.742,-10.669 9.15,-8.965 9.15,-3.518C9.15,2.113 3.853,4.521 -0.667,4.521C-4.668,4.521 -7.78,3.002 -10.596,0.187L-7.076,-3.26C-4.965,-1.221 -3.335,0.001 -0.63,0.001C1.444,0.001 3.482,-0.999 3.482,-3.297C3.482,-5.519 1.111,-6.371 -1.52,-7.335C-4.891,-8.594 -8.67,-10.076 -8.67,-15.041C-8.67,-19.968 -4.483,-22.303 -0.186,-22.303C3.149,-22.303 5.779,-21.227 8.41,-19.227L5.372,-15.448C3.927,-16.671 2,-17.782 0,-17.782" style="fill:rgb(88,94,96);fill-rule:nonzero;"/>
        </g>
        <g transform="matrix(1,0,0,1,115.732,209.497)">
            <path d="M0,1.038C0,9.188 -3.112,13.708 -10.521,13.708C-17.783,13.708 -20.896,9.188 -20.896,1.038L-20.896,-12.67L-15.598,-12.67L-15.598,1.741C-15.598,6.706 -13.597,9.077 -10.447,9.077C-7.299,9.077 -5.298,6.706 -5.298,1.741L-5.298,-12.67L0,-12.67L0,1.038Z" style="fill:rgb(88,94,96);fill-rule:nonzero;"/>
        </g>
    </g>
</svg>
