<?xml version="1.0" encoding="UTF-8" standalone="no"?>
<!DOCTYPE svg PUBLIC "-//W3C//DTD SVG 1.1//EN" "http://www.w3.org/Graphics/SVG/1.1/DTD/svg11.dtd">
<svg width="100%" height="100%" viewBox="0 0 496 496" version="1.1" xmlns="http://www.w3.org/2000/svg" xmlns:xlink="http://www.w3.org/1999/xlink" xml:space="preserve" xmlns:serif="http://www.serif.com/" style="fill-rule:evenodd;clip-rule:evenodd;stroke-linejoin:round;stroke-miterlimit:2;">
    <g transform="matrix(4.16667,0,0,4.16667,0,0)">
        <path d="M44.956,41.702C45.495,41.624 45.975,41.403 46.482,41.222C47.839,40.757 49.03,40.018 49.935,38.823C50.224,38.438 50.327,38.007 50.097,37.592C49.801,37.048 49.539,36.444 49.083,36.032C48.666,35.668 48.388,35.234 48.093,34.766C47.523,33.891 46.939,33.027 46.398,32.127C45.932,31.355 45.389,31.228 44.83,31.734C44.304,32.207 43.752,32.66 43.359,33.278C43.167,33.583 42.916,33.841 42.703,34.133C41.896,35.232 41.303,36.457 40.935,37.785C40.735,38.509 40.631,39.256 40.493,39.997C40.352,40.746 40.715,41.317 41.414,41.484C41.696,41.548 41.976,41.608 42.389,41.697C43.156,41.994 44.05,41.832 44.956,41.702ZM98.907,40.816C98.917,39.985 98.957,39.146 98.952,38.306C98.951,37.95 98.888,37.609 98.825,37.268C98.774,36.981 98.534,36.914 98.319,36.977C97.642,37.182 96.962,37.38 96.303,37.64C95.468,37.973 94.719,38.481 93.938,38.92C92.893,39.516 91.876,40.162 90.999,41.013C90.194,41.79 89.48,42.648 89.094,43.743C88.844,44.445 88.753,45.193 88.621,45.933C88.435,46.97 88.503,47.983 88.905,48.932C89.326,49.915 89.758,50.243 90.767,49.575C91.562,49.052 92.368,48.528 93.18,48.032C94.353,47.303 95.488,46.522 96.521,45.585C97.663,44.555 98.451,43.29 98.785,41.828C98.825,41.433 98.899,41.133 98.907,40.816ZM96.674,76.301C96.416,75.174 95.708,74.296 94.981,73.462C94.36,72.748 93.566,72.267 92.84,71.69C92.027,71.045 91.123,70.561 90.201,70.136C89.462,69.802 88.741,69.434 88.031,69.038C87.5,68.746 86.983,68.807 86.789,69.251C86.632,69.621 86.471,69.991 86.369,70.389C86.056,71.604 86.106,72.838 86.267,74.061C86.327,74.538 86.395,75.027 86.624,75.458C87.231,76.555 88.072,77.438 89.025,78.187C90.147,79.062 91.386,79.75 92.622,80.427C93.381,80.846 94.19,81.146 94.922,81.637C95.314,81.895 95.614,81.79 95.865,81.362C96.285,80.645 96.73,79.928 96.862,79.115C97.094,78.123 96.883,77.199 96.674,76.301ZM98.291,48.907C97.461,49.064 96.677,49.361 95.877,49.633C94.267,50.187 92.636,50.69 91.012,51.208C90.552,51.358 90.259,51.7 90.343,52.078C90.4,52.333 90.46,52.594 90.582,52.837C91.02,53.697 91.592,54.44 92.188,55.177C93.296,56.547 94.756,57.267 96.352,57.667C97.401,57.929 98.487,57.777 99.53,57.465C100.335,57.223 101.069,56.809 101.817,56.443C102.703,56 103.623,55.624 104.424,55.008C104.706,54.784 104.945,54.548 104.782,54.146C104.561,53.61 104.366,53.079 104.025,52.606C103.422,51.777 102.835,50.949 102.059,50.279C101.347,49.655 100.555,49.213 99.682,48.877C99.226,48.873 98.763,48.809 98.291,48.907ZM97.493,70.839C98.632,70.971 99.712,70.812 100.711,70.099C101.947,69.216 102.916,68.098 103.738,66.809C103.953,66.467 104.157,66.14 104.249,65.723C104.335,65.293 104.179,65.075 103.819,64.984C102.85,64.744 101.9,64.46 100.943,64.189C99.687,63.837 98.409,63.603 97.128,63.336C96.693,63.245 96.325,62.917 95.873,62.941C95.223,62.98 94.621,62.752 93.996,62.66C92.742,62.484 91.57,62.752 90.515,63.484C89.56,64.144 88.839,65.05 88.209,66.044C87.767,66.744 87.909,67.444 88.626,67.798C89.635,68.305 90.639,68.814 91.696,69.235C93.077,69.772 94.516,70.091 95.877,70.676C96.404,70.864 96.957,70.786 97.493,70.839ZM31.211,35.416C31.829,35.55 32.493,35.504 33.134,35.436C34.198,35.34 35.268,35.269 36.321,35.024C36.858,34.901 37.399,34.78 37.919,34.605C38.747,34.318 39.551,33.972 40.353,33.6C41.729,32.977 43.063,32.249 44.272,31.298C44.832,30.861 45.336,29.944 44.805,28.96C44.53,28.456 44.313,27.922 44.103,27.384C43.541,25.95 43.001,24.51 42.438,23.085C42.248,22.608 41.886,22.418 41.396,22.489C40.519,22.619 39.779,23.071 39.072,23.594C38.804,23.79 38.548,23.999 38.276,24.197C37.09,25.061 35.922,25.944 34.838,26.942C33.905,27.805 33.088,28.768 32.333,29.816C31.43,31.058 30.82,32.42 30.397,33.902C30.123,34.944 30.452,35.252 31.211,35.416ZM14.697,26.458C15.304,26.547 15.899,26.424 16.502,26.416C17.44,26.4 18.36,26.172 19.287,26.057C20.319,25.92 21.322,25.588 22.328,25.281C23.073,25.059 23.784,24.711 24.563,24.594C25.239,24.487 25.786,24.174 25.995,23.418C26.135,22.917 26.106,22.41 26.004,21.923C25.801,20.967 25.571,20.019 25.47,19.048C25.402,18.337 25.326,17.615 25.178,16.916C24.918,15.678 24.844,14.411 24.789,13.153C24.75,12.258 24.231,11.905 23.468,12.322C23.285,12.421 23.093,12.514 22.936,12.646C21.834,13.588 20.72,14.519 19.648,15.496C18.362,16.677 17.199,17.996 16.005,19.274C14.835,20.534 13.703,21.837 12.709,23.27C12.368,23.764 11.909,24.179 11.666,24.738C11.312,25.56 11.269,26.116 12.291,26.232C12.35,26.236 12.41,26.257 12.577,26.293C13.2,26.522 13.961,26.337 14.697,26.458ZM108.2,28.852C106.75,29.444 105.328,30.082 104.189,31.244C103.954,31.481 103.697,31.726 103.605,32.066C103.395,32.847 103.177,33.637 103.433,34.47C103.606,35.03 103.726,35.614 103.87,36.174C104.093,37.069 104.298,38.004 104.289,38.902C104.274,40.591 103.646,42.058 102.355,43.15C101.618,43.778 100.84,44.336 100.025,44.827C99.173,45.338 98.338,45.891 97.428,46.284C96.95,46.491 96.769,46.933 96.936,47.312C97.076,47.641 97.548,47.728 97.995,47.532C99.767,46.75 101.547,45.976 103.494,45.785C104.481,45.687 105.363,45.939 106.082,46.685C106.701,47.321 107.032,48.157 107.382,48.967C107.678,49.668 107.995,50.352 108.474,50.931C109.1,51.706 109.86,52.2 110.863,52.167C111.919,52.142 112.927,51.853 113.886,51.395C114.439,51.137 114.978,50.813 115.402,50.328C116.173,49.44 116.169,48.366 115.945,47.31C115.741,46.355 115.393,45.422 115.104,44.48C115.058,44.334 115.036,44.129 114.83,44.148C114.651,44.171 114.611,44.353 114.563,44.511C114.427,45.032 114.223,45.508 113.89,45.94C113.425,46.556 112.832,46.973 112.179,47.27C110.905,47.868 109.613,48.155 108.312,47.284C107.594,46.804 107.113,45.988 107.323,45.25C107.708,43.9 108.559,42.94 109.786,42.338C110.786,41.854 111.766,41.336 112.895,41.191C114.034,41.055 115.128,40.953 116.016,41.962C116.276,42.249 116.488,42.579 116.761,42.856C116.886,42.984 117.037,43.059 117.207,42.961C117.366,42.871 117.378,42.698 117.34,42.539C117.262,42.197 117.174,41.871 117.074,41.544C116.813,40.683 116.593,39.82 116.222,38.997C115.969,38.431 115.821,37.802 115.568,37.226C115.386,36.803 115.076,36.505 114.667,36.305C113.581,35.775 112.502,35.964 111.429,36.301C110.018,36.76 108.63,37.275 107.34,38.054C106.984,38.26 106.617,38.453 106.252,38.644C105.986,38.786 105.781,38.708 105.632,38.444C105.405,38.052 105.455,37.618 105.539,37.218C105.885,35.55 106.898,34.446 108.309,33.684C108.949,33.339 109.647,33.221 110.332,33.055C110.917,32.924 111.481,32.987 112.046,33.22C112.489,33.416 112.805,33.752 113.137,34.09C113.306,34.258 113.525,34.56 113.786,34.344C114.009,34.167 113.951,33.84 113.828,33.569C113.822,33.551 113.813,33.534 113.804,33.513C113.32,32.565 112.847,31.614 112.351,30.683C111.831,29.686 111.138,28.914 109.955,28.84C109.381,28.587 108.774,28.621 108.2,28.852ZM116.022,78.613C116.097,78.1 116.088,77.585 115.959,77.079C115.687,76.015 114.884,75.436 114.041,74.933C113.206,74.434 112.272,74.168 111.379,73.81C110.689,73.531 109.973,73.457 109.247,73.468C108.984,73.474 108.688,73.536 108.541,73.283C108.38,73.013 108.48,72.691 108.637,72.452C108.94,71.987 109.328,71.595 109.819,71.356C110.58,70.983 111.4,71.018 112.205,71.086C113.179,71.173 114.09,71.562 114.968,72.011C116.027,72.551 116.728,73.416 116.902,74.684C116.93,74.918 116.946,75.22 117.208,75.259C117.501,75.302 117.531,74.957 117.652,74.761C117.687,74.701 117.685,74.61 117.709,74.541C117.823,74.18 117.936,73.805 118.054,73.443C118.417,72.371 118.491,71.261 118.205,70.183C117.855,68.847 116.957,67.916 115.821,67.278C114.569,66.583 113.215,66.287 111.807,66.558C109.789,66.957 108.629,68.476 107.717,70.242C107.322,71.013 106.936,71.8 106.513,72.561C106.17,73.188 105.635,73.504 104.951,73.623C104.377,73.718 103.81,73.725 103.237,73.7C102.97,73.695 102.697,73.774 102.455,73.62C102.21,73.463 101.941,73.413 101.672,73.347C100.992,73.186 100.314,73.033 99.643,72.836C99.112,72.678 98.585,72.487 98.079,72.26C97.586,72.04 97.187,72.058 96.976,72.395C96.739,72.787 96.856,73.184 97.315,73.54C97.404,73.609 97.504,73.669 97.606,73.712C98.426,74.075 99.267,74.375 100.032,74.858C101.12,75.553 102.184,76.263 103.016,77.308C103.646,78.094 103.85,78.955 103.503,79.951C103.399,80.256 103.236,80.524 103.115,80.824C102.643,81.935 102.284,83.086 101.943,84.249C101.722,85.004 101.541,85.752 101.651,86.581C101.945,88.809 103.323,90.015 105.137,90.856C105.391,90.969 105.669,90.872 105.926,90.956C107.311,91.429 108.413,91.043 109.253,89.87C110.203,88.537 110.761,87.053 111.04,85.423C111.078,85.194 111.273,84.859 111.018,84.718C110.763,84.578 110.524,84.853 110.346,85.068C110.07,85.395 109.725,85.623 109.336,85.761C108.243,86.157 107.162,86.065 106.078,85.725C105.053,85.405 104.063,84.198 104.038,83.137C103.978,80.567 105.946,79.039 108.193,79.33C109.303,79.469 110.28,80.054 111.262,80.584C112.101,81.042 112.75,81.685 112.984,82.686C113.085,83.132 113.055,83.584 113.048,84.042C113.045,84.257 113.005,84.539 113.267,84.616C113.512,84.693 113.695,84.484 113.821,84.29C114.007,84.002 114.16,83.705 114.321,83.404C114.983,82.18 115.647,80.949 115.846,79.528C115.906,79.223 115.979,78.922 116.022,78.613ZM91.178,27.077C92.197,27.22 93.209,27.215 94.17,26.808C95.186,26.37 96.027,25.64 96.738,24.759C96.804,24.674 96.857,24.581 96.788,24.465C96.712,24.354 96.606,24.401 96.507,24.428C95.72,24.675 94.907,24.863 94.095,24.805C92.277,24.673 90.648,23.945 89.155,22.875C87.942,22.003 86.75,21.099 85.548,20.207C85.418,20.107 85.266,20.031 85.323,19.835C85.373,19.657 85.53,19.66 85.677,19.645C86.814,19.576 87.894,19.873 88.971,20.179C89.633,20.361 90.308,20.46 90.949,20.74C91.237,20.865 91.603,20.77 91.916,20.845C92.743,21.042 93.579,21.189 94.401,21.431C94.827,21.557 95.299,21.706 95.785,21.696C96.325,21.681 96.785,22.035 97.309,22.154C98.498,22.425 99.597,22.872 100.008,24.274C100.065,24.469 100.244,24.49 100.417,24.396C100.611,24.293 100.746,24.133 100.81,23.921C101.037,23.152 101.354,22.406 101.421,21.597C101.453,21.179 101.47,20.769 101.362,20.355C101.123,19.421 100.511,18.842 99.785,18.298C98.727,17.502 97.555,16.966 96.359,16.474C95.934,16.301 95.545,16.328 95.138,16.614C94.113,17.338 93.094,18.109 91.886,18.467C90.551,18.878 89.276,18.704 88.078,17.981C86.715,17.161 85.763,15.932 85.05,14.483C84.742,13.849 84.874,13.526 85.536,13.398C86.603,13.188 87.674,13.267 88.739,13.426C89.126,13.479 89.372,13.752 89.4,14.166C89.445,14.85 89.483,15.534 89.515,16.217C89.548,16.727 89.604,17.221 89.787,17.688C89.904,17.992 90.13,18.071 90.409,17.898C90.567,17.798 90.704,17.677 90.834,17.536C91.474,16.867 91.948,16.072 92.426,15.29C92.747,14.755 93.03,14.649 93.586,14.904C93.928,15.049 94.245,15.246 94.57,15.422C94.753,15.52 94.94,15.566 95.123,15.44C95.297,15.31 95.262,15.13 95.242,14.944C95.149,14.069 94.879,13.242 94.539,12.447C94.258,11.809 93.958,11.155 93.389,10.722C92.499,10.045 91.488,9.641 90.415,9.428C89.491,9.254 88.567,9.091 87.638,8.965C86.769,8.849 85.884,8.694 85.012,8.73C83.971,8.771 82.956,8.552 81.92,8.573C81.188,8.589 80.452,8.481 79.721,8.418C78.437,8.313 77.176,8.124 75.965,7.598C74.779,7.081 73.754,6.302 72.718,5.54C72.421,5.323 72.295,5.355 72.211,5.733C72.188,5.833 72.17,5.942 72.171,6.053C72.197,7.331 72.588,8.522 73.046,9.679C73.503,10.845 74.157,11.9 74.805,12.959C75.084,13.419 74.998,13.854 74.56,14.119C73.79,14.59 73.145,15.225 72.538,15.895C71.646,16.859 71.013,18.046 70.318,19.175C69.791,20.021 69.268,20.864 68.881,21.793C68.256,23.311 67.537,24.783 66.691,26.178C66.448,26.574 66.243,27.018 65.876,27.299C65.02,27.961 64.142,28.6 63.012,28.673C62.428,28.707 62.201,29.286 62.512,29.808C62.598,29.941 62.71,30.062 62.801,30.192C63.099,30.596 63.5,30.885 63.887,31.184C65.043,32.068 66.262,32.704 67.785,32.377C68.886,32.15 69.733,31.642 70.224,30.554C70.302,30.374 70.405,30.129 70.641,30.214C70.869,30.3 70.781,30.55 70.744,30.731C70.628,31.315 70.461,31.901 70.374,32.49C70.182,33.777 70.373,35.021 70.76,36.255C71.323,38.057 72.461,39.119 74.264,39.401C75.974,39.675 77.82,38.32 78.259,36.641C78.319,36.403 78.408,36.174 78.511,35.946C78.741,35.412 78.84,34.834 78.869,34.255C78.901,33.722 78.923,33.183 79.09,32.674C79.138,32.526 79.147,32.314 79.342,32.313C79.53,32.315 79.564,32.513 79.609,32.666C79.796,33.319 79.898,34.008 80.188,34.627C80.448,35.199 80.677,35.777 81.091,36.264C81.796,37.095 82.647,37.717 83.541,38.279C84.373,38.819 85.241,39.286 86.26,39.273C86.511,39.262 86.772,39.249 86.872,38.95C86.983,38.625 87.029,38.318 86.749,38.024C85.658,36.873 85.02,35.448 84.598,33.921C84.143,32.296 84.145,30.594 84.086,28.911C84.067,28.346 84.077,27.77 84.105,27.2C84.133,26.555 84.168,25.9 84.255,25.249C84.32,24.798 84.695,24.531 85.055,24.663C85.649,24.875 86.242,25.093 86.789,25.395C88.035,26.087 89.323,26.639 90.697,26.974C90.856,27.007 91.015,27.052 91.178,27.077ZM60.852,79.756C59.964,79.809 59.076,79.86 58.211,80.122C57.397,80.362 56.852,81 56.792,81.819C56.748,82.375 56.795,82.928 56.994,83.441C57.711,85.272 58.474,87.098 59.532,88.75C60.041,89.551 60.63,90.303 61.258,91.008C61.934,91.758 62.628,92.499 63.408,93.153C63.852,93.516 64.34,93.806 64.811,94.128C65.753,94.782 66.716,95.423 67.775,95.872C68.504,96.182 69.262,96.409 70.039,96.564C70.531,96.663 70.738,97.04 70.534,97.432C70.247,97.949 69.966,98.475 69.623,98.954C68.352,100.725 66.921,102.348 65.334,103.814C64.696,104.397 63.95,104.839 63.348,105.474C62.587,106.277 62.805,107.549 63.792,108.005C63.896,108.049 64.002,108.1 64.094,108.162C65.057,108.815 66.131,109.194 67.188,109.613C67.851,109.876 68.544,110.022 69.227,110.208C69.72,110.334 70.19,110.544 70.72,110.599C71.387,110.665 72.077,110.7 72.711,110.972C73.16,111.161 73.354,111.509 73.223,111.999C73.099,112.499 72.924,112.98 72.452,113.27C72.285,113.372 72.12,113.52 72.148,113.756C72.177,113.993 72.375,114.057 72.557,114.143C73.341,114.48 74.155,114.355 74.957,114.322C76.318,114.254 76.884,113.786 77.524,112.271C77.742,111.753 78.048,111.366 78.614,111.319C79.009,111.288 79.41,111.278 79.812,111.28C80.329,111.297 80.659,111.582 80.821,112.105C81.075,112.927 80.783,113.879 80.106,114.355C79.928,114.477 79.69,114.581 79.744,114.859C79.794,115.137 80.059,115.124 80.263,115.174C80.715,115.299 81.177,115.215 81.637,115.267C83.492,115.497 85.612,113.965 85.266,111.655C85.2,111.209 85.353,110.867 85.704,110.693C86.176,110.459 86.698,110.187 87.219,110.522C87.721,110.846 88.028,111.346 88.075,111.981C88.132,112.758 87.994,113.501 87.529,114.137C87.427,114.279 87.34,114.442 87.438,114.612C87.53,114.768 87.688,114.716 87.829,114.699C88.285,114.663 88.712,114.525 89.141,114.38C90.312,114.001 91.264,113.357 91.83,112.167C92.273,111.244 92.377,110.295 92.133,109.287C92.064,108.999 92.042,108.712 92.281,108.474C92.685,108.073 93.47,108.041 93.891,108.422C94.41,108.884 94.559,109.523 94.5,110.192C94.455,110.753 94.363,111.324 94.075,111.828C93.998,111.966 93.988,112.141 94.108,112.284C94.23,112.425 94.371,112.367 94.504,112.324C94.964,112.164 95.303,111.812 95.714,111.556C96.935,110.793 97.688,109.675 97.986,108.197C98.157,107.357 98.076,106.503 98.237,105.665C98.304,105.313 98.172,104.941 97.908,104.659C97.555,104.301 97.154,104.009 96.724,103.751C95.743,103.179 94.91,102.325 93.807,101.955C93.209,101.755 92.592,101.736 92.01,101.985C91.294,102.293 90.605,102.684 89.912,103.044C89.192,103.425 88.425,103.703 87.679,104.028C86.686,104.463 85.706,104.943 84.678,105.268C82.98,105.8 81.283,106.381 79.503,106.584C78.74,106.671 77.987,106.84 77.223,106.868C76.205,106.912 75.193,107.011 74.165,106.98C73.272,106.946 72.42,106.77 71.561,106.564C71.395,106.524 71.22,106.441 71.214,106.213C71.212,105.965 71.378,105.838 71.562,105.764C73.047,105.121 74.467,104.358 75.808,103.414C77.639,102.129 79.414,100.802 80.997,99.192C81.563,98.616 82.164,98.076 82.705,97.472C84.296,95.692 85.469,93.609 86.54,91.468C86.954,90.635 86.86,90.23 86.132,89.67C86.001,89.574 85.884,89.452 85.753,89.351C84.333,88.236 82.822,87.273 81.297,86.337C80.098,85.606 78.864,84.944 77.599,84.34C76.575,83.851 75.529,83.424 74.468,83.03C73.171,82.547 71.892,82.009 70.602,81.511C69.174,80.962 67.681,80.671 66.33,80.308C64.44,79.941 62.66,79.659 60.852,79.756ZM60.177,35.776C59.803,35.742 59.632,36.02 59.485,36.329C59.072,37.185 58.449,37.838 57.723,38.395C57.022,38.942 56.255,39.312 55.422,39.574C54.723,39.795 54.031,39.998 53.292,39.942C52.936,39.913 52.576,39.913 52.223,39.949C51.925,39.983 51.821,40.171 52.023,40.441C52.226,40.727 52.436,41.007 52.649,41.28C53.177,41.938 53.831,42.467 54.374,43.107C54.963,43.802 55.611,44.418 56.278,45.015C56.56,45.274 56.741,45.217 56.823,44.837C57.008,43.987 57.158,43.134 57.327,42.273C57.463,41.579 57.627,40.899 57.979,40.272C58.368,39.59 58.761,38.902 59.448,38.501C59.885,38.243 60.364,38.063 60.798,37.8C61.509,37.381 61.46,37.144 61.073,36.684C60.95,36.548 60.873,36.355 60.757,36.215C60.605,36.024 60.428,35.857 60.177,35.776ZM64.601,13.45C64.434,14.279 64.344,15.14 64.046,15.93C63.78,16.645 63.535,17.373 63.195,18.062C62.879,18.704 62.641,19.379 62.353,20.028C62.115,20.556 61.881,21.075 61.609,21.58C61.186,22.354 60.857,23.182 60.418,23.942C60.248,24.233 60.115,24.548 59.949,24.849C59.558,25.548 59.706,26.262 59.928,26.964C60.315,28.201 60.9,29.328 61.628,30.378C62.591,31.756 63.649,33.039 65.107,33.86C66.089,34.417 67.146,34.794 68.292,34.765C68.604,34.757 68.904,34.826 69.208,34.876C69.518,34.925 69.653,35.106 69.705,35.436C69.799,36.023 69.784,36.61 69.786,37.2C69.802,38.927 70.299,40.489 71.353,41.817C71.903,42.504 72.698,42.774 73.539,42.834C74.95,42.931 76.006,42.262 76.954,41.204C77.874,40.174 78.586,39.037 79.068,37.727C79.28,37.134 79.587,37.061 79.98,37.517C80.744,38.406 81.643,39.112 82.626,39.693C83.461,40.187 84.323,40.637 85.253,40.902C86.125,41.151 86.339,41.48 86.16,42.423C85.812,44.268 85.955,46.093 86.302,47.924C86.627,49.66 87.323,51.251 88.127,52.788C88.978,54.411 90.165,55.731 91.487,56.941C91.933,57.344 92.442,57.672 92.86,58.117C93.237,58.532 93.414,59.184 93.236,59.726C93.16,59.946 92.993,60.02 92.796,60.085C92.132,60.307 91.448,60.432 90.784,60.662C89.543,61.098 88.613,61.955 87.793,62.986C87.31,63.599 86.809,64.195 86.393,64.86C85.539,66.234 84.822,67.667 84.392,69.262C84.119,70.273 83.852,71.29 83.899,72.362C83.921,72.939 83.992,73.519 84.003,74.095C84.014,75.085 83.669,75.951 83.023,76.653C82.685,77.02 82.297,76.989 81.911,76.684C81.16,76.078 80.452,75.437 79.784,74.735C79.048,73.958 78.698,73.018 78.502,71.978C78.424,71.563 78.346,71.151 78.229,70.753C78.129,70.44 77.946,70.162 77.577,70.167C77.228,70.17 77.031,70.422 76.884,70.721C76.493,71.518 76.165,72.368 75.704,73.123C75.188,73.973 74.603,74.773 73.855,75.434C73.133,76.067 72.383,76.658 71.556,77.139C70.261,77.879 68.835,78.238 67.411,78.492C65.939,78.752 64.433,78.822 62.919,78.671C61.516,78.532 60.156,78.165 58.789,77.855C58.315,77.743 57.825,77.585 57.344,77.482C55.792,77.165 54.244,76.777 52.646,76.744C52.052,76.734 51.464,76.607 50.873,76.774C50.487,76.886 50.385,77.184 50.636,77.521C51.132,78.208 51.673,78.859 52.245,79.474C53.036,80.318 53.541,81.374 54.081,82.401C54.955,84.08 55.552,85.876 56.128,87.676C56.734,89.554 57.162,91.488 57.434,93.467C57.628,94.868 57.766,96.277 57.735,97.692C57.701,99.127 57.793,100.561 57.729,102.001C57.692,102.813 57.654,103.646 57.469,104.385C57.254,105.248 57.48,106.09 57.229,106.923C57.004,107.675 56.594,108.077 55.852,107.921C53.594,107.444 51.312,107.058 49.095,106.396C47.941,106.048 46.757,105.756 45.645,105.273C44.529,104.791 43.376,104.42 42.258,103.955C41.45,103.625 40.689,103.188 39.931,102.729C38.883,102.084 37.826,101.447 36.865,100.668C35.034,99.189 33.354,97.55 31.993,95.562C31.626,95.025 31.149,94.573 30.716,94.084C30.62,93.986 30.513,93.824 30.348,93.927C30.18,94.029 30.205,94.231 30.255,94.395C30.44,94.988 30.612,95.601 30.835,96.19C31.237,97.244 31.687,98.275 32.196,99.291C32.895,100.656 33.719,101.935 34.614,103.154C35.516,104.401 36.538,105.529 37.547,106.671C38.589,107.844 39.804,108.81 41.036,109.754C42.007,110.5 43.053,111.092 44.102,111.686C44.803,112.084 44.994,112.285 44.662,113.376C44.514,113.847 44.387,114.33 44.255,114.802C44.077,115.44 43.856,116.07 43.647,116.698C43.451,117.286 43.035,117.752 42.465,118.035C41.858,118.339 41.216,118.578 40.587,118.822C39.612,119.207 38.719,118.915 37.839,118.465C37.16,118.118 36.47,117.784 35.783,117.462C35.043,117.112 34.457,116.533 33.794,116.074C33.622,115.955 33.491,115.742 33.601,115.512C33.704,115.297 33.913,115.367 34.096,115.399C34.713,115.507 35.292,115.795 35.925,115.814C36.525,115.827 37.029,115.582 37.419,115.118C37.714,114.768 37.69,114.387 37.373,114.068C36.867,113.563 36.335,113.089 35.849,112.572C35.431,112.117 34.975,112.183 34.51,112.396C33.833,112.694 33.123,112.918 32.412,113.004C31.35,113.128 30.323,113.063 29.551,112.053C28.725,110.967 27.826,109.939 27.192,108.692C27.085,108.479 26.997,108.244 27.184,108.076C27.378,107.898 27.545,108.107 27.685,108.225C28.77,109.172 29.93,109.306 31.163,108.627C31.687,108.339 31.827,107.916 31.52,107.37C31.241,106.872 30.905,106.409 30.481,106.021C30.229,105.801 29.938,105.738 29.617,105.809C28.317,106.078 27.081,105.851 25.879,105.301C25.481,105.119 25.227,104.8 25.042,104.4C24.491,103.215 24.004,102.012 23.742,100.72C23.683,100.412 23.658,100.103 23.673,99.79C23.678,99.68 23.722,99.578 23.838,99.543C23.943,99.516 24.013,99.577 24.077,99.654C24.15,99.745 24.239,99.823 24.293,99.924C24.879,101.034 26.42,101.211 27.383,100.97C27.736,100.876 27.943,100.526 27.864,100.11C27.729,99.393 27.462,98.708 27.16,98.052C26.961,97.612 26.487,97.526 26.085,97.448C25.045,97.25 24.197,96.726 23.464,95.95C23.054,95.516 22.985,94.919 22.956,94.355C22.904,93.306 22.923,92.257 23.207,91.223C23.256,91.043 23.278,90.8 23.502,90.784C23.731,90.769 23.788,91.006 23.846,91.18C24.059,91.823 24.466,92.204 25.124,92.27C25.496,92.301 25.761,92.117 25.789,91.722C25.818,91.27 25.864,90.817 25.745,90.351C25.615,89.865 25.619,89.331 25.615,88.817C25.614,87.647 25.611,86.479 25.679,85.314C25.716,84.718 25.712,84.109 25.84,83.514C25.923,83.132 26.094,82.86 26.462,82.768C26.908,82.655 27.299,82.743 27.566,83.171C28.064,83.99 28.515,84.832 29.055,85.615C29.914,86.862 30.923,87.975 32.061,88.955C32.53,89.351 32.964,89.811 33.486,90.109C34.253,90.547 34.994,91.027 35.804,91.4C37.039,91.97 38.328,92.339 39.595,92.778C40.695,93.157 41.842,93.369 42.99,93.532C43.449,93.594 43.926,93.547 44.398,93.523C44.561,93.52 44.768,93.501 44.807,93.265C44.847,93.031 44.676,92.955 44.519,92.862C43.841,92.464 43.118,92.156 42.441,91.774C41.349,91.152 40.317,90.412 39.332,89.606C38.669,89.07 37.989,88.555 37.313,88.03C36.194,87.187 35.251,86.146 34.353,85.059C33.352,83.85 32.419,82.592 31.674,81.177C30.886,79.681 30.529,78.078 30.49,76.364C30.451,75.038 30.675,73.756 31.036,72.492C31.159,72.073 31.36,71.674 31.498,71.272C31.746,70.555 31.58,70.284 30.867,70.269C29.608,70.25 28.356,70.123 27.131,69.812C25.284,69.348 23.887,68.27 23.193,66.385C22.801,65.311 22.819,64.164 23.173,63.057C23.817,61.059 25.063,59.607 26.827,58.611C27.892,58.012 28.953,57.421 30.079,56.943C31.181,56.48 32.287,56.018 33.335,55.447C34.536,54.788 35.812,54.243 36.791,53.201C38.006,51.915 38.581,50.408 38.029,48.615C37.653,47.377 36.74,46.704 35.549,46.424C35.341,46.379 35.141,46.309 34.947,46.203C34.702,46.058 34.444,46.02 34.15,46.08C33.749,46.158 33.337,46.069 32.931,46.068C31.163,46.068 29.462,46.455 27.771,46.928C26.761,47.216 25.755,47.491 24.747,47.788C23.98,48.014 23.248,48.359 22.508,48.683C21.592,49.089 20.685,49.506 19.771,49.912C18.507,50.465 17.218,50.968 16.21,52.013C15.194,53.052 14.484,54.283 14.16,55.763C13.796,57.434 14.101,59.01 14.698,60.548C15.401,62.367 16.384,64.03 17.377,65.68C18.275,67.174 19.241,68.615 20.28,69.99C20.842,70.742 21.399,71.48 21.74,72.36C22.101,73.316 22.284,74.296 21.987,75.321C21.869,75.709 21.664,76.047 21.483,76.391C21.057,77.218 20.521,77.959 19.908,78.647C19.719,78.854 19.612,79.139 19.38,79.316C19.257,79.412 19.148,79.551 18.976,79.479C18.792,79.403 18.764,79.219 18.713,79.038C18.472,78.162 18.314,77.25 17.866,76.466C17.467,75.744 16.937,75.105 16.471,74.424C15.306,72.716 13.953,71.145 12.871,69.373C12.271,68.392 11.786,67.352 11.409,66.232C10.758,64.31 10.799,62.38 11.062,60.421C11.104,60.08 11.122,59.742 11.234,59.41C11.283,59.254 11.28,59.019 11.111,58.916C10.939,58.795 10.799,58.953 10.688,59.073C10.289,59.519 10.04,60.069 9.813,60.611C9.217,62.055 8.829,63.561 8.767,65.127C8.722,66.28 8.733,67.409 9.019,68.566C9.581,70.772 10.562,72.773 11.425,74.828C11.94,76.053 12.728,77.091 13.393,78.211C14.018,79.269 14.671,80.304 15.239,81.409C15.731,82.357 15.787,83.287 15.594,84.303C15.44,85.136 15.191,85.946 14.769,86.683C14.325,87.479 14.02,88.352 13.615,89.173C13.523,89.357 13.464,89.624 13.217,89.603C12.962,89.59 12.944,89.322 12.899,89.117C12.537,87.464 11.669,86.085 10.755,84.728C9.825,83.356 8.896,81.979 7.925,80.639C7.178,79.603 6.564,78.487 6.014,77.338C5.62,76.521 5.439,75.59 5.343,74.67C5.238,73.707 5.228,72.751 5.275,71.776C5.36,69.958 5.687,68.18 6.198,66.458C6.543,65.288 6.86,64.094 7.345,62.967C7.691,62.148 7.916,61.277 8.269,60.465C8.744,59.374 9.313,58.325 9.962,57.332C10.136,57.061 10.326,56.801 10.373,56.474C10.422,56.142 10.28,55.969 9.97,55.983C9.77,56.001 9.548,56.025 9.377,56.125C8.083,56.884 6.746,57.561 5.5,58.412C4.89,58.829 4.219,59.14 3.631,59.593C2.848,60.194 2.167,60.91 1.513,61.645C1.182,62.023 0.947,62.513 0.79,63.025C0.729,63.216 0.666,63.421 0.506,63.552C0.324,63.707 0.161,63.672 0.128,63.409C0.013,62.505 -0.016,61.594 0.033,60.677C0.05,60.244 -0.021,59.807 0.006,59.36C0.095,58.105 0.399,56.93 0.983,55.828C1.295,55.235 1.77,54.839 2.295,54.511C3.647,53.652 5.086,52.978 6.547,52.354C7.514,51.94 8.479,51.52 9.416,51.033C10.696,50.374 12.031,49.857 13.327,49.238C14.761,48.559 16.236,47.963 17.69,47.336C19.196,46.679 20.711,46.054 22.234,45.46C23.821,44.838 25.423,44.232 27.106,43.902C28.276,43.673 29.445,43.355 30.629,43.233C31.931,43.098 33.231,43.152 34.544,43.323C35.627,43.457 36.64,43.73 37.572,44.265C38.911,45.036 40.11,45.978 40.767,47.522C41.253,48.668 41.454,49.856 41.356,51.076C41.297,51.816 41.009,52.52 40.656,53.159C39.451,55.354 37.558,56.704 35.491,57.858C34.65,58.334 33.824,58.832 32.949,59.218C32.1,59.599 31.236,59.944 30.414,60.367C29.163,61.015 27.748,61.425 26.838,62.627C25.941,63.814 25.984,65.182 27.356,66.14C28.606,67.023 30.02,67.103 31.471,67.07C31.959,67.058 32.452,67.06 32.938,67.065C34.806,67.088 36.654,66.941 38.495,66.616C39.524,66.435 40.564,66.326 41.592,66.161C42.086,66.078 42.572,65.918 43.054,65.795C44.107,65.534 45.164,65.278 46.208,64.978C47.804,64.519 49.412,64.107 50.94,63.401C52.476,62.685 53.967,61.876 55.367,60.909C56.934,59.83 58.392,58.601 59.761,57.233C60.885,56.108 61.762,54.812 62.668,53.506C63.505,52.3 64.057,50.954 64.628,49.617C65.019,48.714 65.293,47.737 65.507,46.773C65.814,45.376 66.158,43.993 66.243,42.553C66.263,42.178 66.187,41.81 66.068,41.474C65.913,41.046 65.561,41.02 65.306,41.381C65.195,41.532 65.136,41.7 65.112,41.891C64.982,42.804 64.685,43.675 64.151,44.409C63.63,45.123 62.949,45.654 62.113,45.949C61.345,46.214 60.574,46.45 59.781,46.622C59.401,46.7 59.012,46.727 58.639,46.866C58.151,47.055 58.09,47.262 58.425,47.657C58.9,48.228 59.51,48.631 60.062,49.113C60.745,49.697 61.536,50.149 62.156,50.827C62.465,51.162 62.465,51.537 62.243,51.949C61.133,53.97 59.437,55.163 57.327,55.715C56.375,55.966 55.397,56.122 54.411,56.109C53.571,56.097 53.071,55.906 53.291,54.734C53.479,53.732 53.633,52.712 54.007,51.764C54.679,50.055 55.399,48.372 56.608,46.981C56.696,46.878 56.767,46.749 56.649,46.642C56.532,46.534 56.442,46.663 56.364,46.742C55.01,48.041 53.442,48.962 51.709,49.527C50.442,49.942 49.109,49.967 47.788,49.842C46.877,49.756 46.466,49.252 46.492,48.269C46.519,47.14 46.687,46.025 47.065,44.955C47.575,43.525 48.339,42.273 49.271,41.105C49.671,40.599 50.092,40.121 50.624,39.76C50.775,39.666 50.842,39.499 50.792,39.341C50.443,38.214 50.776,37.183 51.116,36.137C51.686,34.37 52.592,32.849 54.116,31.823C54.682,31.44 55.309,31.159 55.904,30.831C56.32,30.599 56.441,30.256 56.245,29.805C56.162,29.601 56.047,29.407 55.924,29.226C55.52,28.642 55.194,28.617 54.695,29.128C54.285,29.551 53.881,29.985 53.374,30.272C52.206,30.939 50.994,31.524 49.658,31.625C48.444,31.715 47.227,31.593 46.032,31.328C45.649,31.245 45.58,30.856 45.513,30.528C45.371,29.82 45.627,29.178 45.852,28.548C46.293,27.326 46.89,26.195 47.733,25.208C48.211,24.649 48.65,24.094 49.296,23.693C50.07,23.215 50.922,23.067 51.757,22.81C51.893,22.765 52.035,22.746 52.177,22.718C52.523,22.669 52.762,22.52 52.812,22.103C52.874,21.63 52.747,21.222 52.435,20.898C52.268,20.732 52.034,20.794 51.828,20.902C51.24,21.226 50.725,21.686 50.085,21.926C49.482,22.137 48.866,22.3 48.246,22.405C46.396,22.724 44.575,22.446 42.777,21.967C42.269,21.828 42.049,21.429 42.11,20.869C42.182,20.222 42.533,19.684 42.752,19.098C43.179,17.934 43.769,16.842 44.518,15.865C45.907,14.048 47.716,12.915 49.893,12.458C50.224,12.385 50.556,12.324 50.886,12.258C51.27,12.186 51.498,11.926 51.525,11.536C51.566,10.94 51.567,10.34 51.566,9.74C51.566,9.52 51.579,9.243 51.358,9.136C51.131,9.025 50.928,9.193 50.744,9.334C49.945,9.938 49.146,10.542 48.271,11.028C47.25,11.591 46.24,12.2 45.102,12.468C43.988,12.725 42.889,13.075 41.739,13.193C41.07,13.263 40.403,13.353 39.734,13.439C39.202,13.501 39.121,13.69 39.338,14.2C39.736,15.119 39.938,16.112 40.287,17.056C40.615,17.93 40.915,18.825 41.26,19.695C41.625,20.617 41.351,21.417 40.356,22.008C39.464,22.54 38.631,23.155 37.681,23.584C36.526,24.098 35.347,24.478 34.109,24.708C32.966,24.917 31.819,25.071 30.672,25.155C29.708,25.234 28.73,25.293 27.766,25.145C26.84,25.003 26.659,25.202 26.87,26.153C27.028,26.858 27.427,27.468 27.637,28.151C28.193,29.922 28.984,31.608 29.56,33.378C29.759,33.982 29.592,34.298 29.114,34.75C28.517,35.309 27.813,35.682 27.197,36.189C26.43,36.822 25.512,37.113 24.639,37.498C23.753,37.889 22.833,38.188 21.889,38.397C21.122,38.56 20.343,38.68 19.555,38.743C18.622,38.82 17.731,38.674 16.857,38.417C16.161,38.221 15.704,38.496 15.325,39.042C14.86,39.708 14.364,40.356 13.841,40.973C12.663,42.357 11.492,43.748 10.265,45.098C9.846,45.559 9.368,45.974 8.864,46.349C8.524,46.596 8.261,46.95 7.915,47.213C7.039,47.888 6.214,48.649 5.31,49.287C4.283,50.01 3.175,50.603 1.991,50.995C1.431,51.182 0.962,51.067 1.119,50.216C1.233,49.61 1.173,48.968 1.37,48.372C1.823,47.003 1.985,45.56 2.392,44.191C2.941,42.357 3.512,40.528 4.173,38.739C4.726,37.243 5.361,35.774 6.065,34.348C6.64,33.178 7.229,32.016 7.813,30.847C8.157,30.165 8.593,29.537 9.005,28.894C9.452,28.205 9.824,27.457 10.386,26.852C10.429,26.811 10.466,26.756 10.511,26.71C11.107,26.121 11.474,26.248 11.691,27.078C11.951,28.039 12.322,28.96 12.767,29.845C13.139,30.589 13.467,31.356 13.855,32.088C14.517,33.32 15.146,34.57 15.715,35.853C15.792,36.032 15.882,36.291 16.139,36.27C16.406,36.25 16.457,35.987 16.557,35.766C17.095,34.574 17.663,33.397 18.273,32.237C19.17,30.538 20.382,29.09 21.672,27.725C22.268,27.099 22.975,26.586 23.648,26.04C24.416,25.417 25.264,24.873 25.871,24.073C26.24,23.585 26.446,22.964 26.76,22.424C27.421,21.283 28.17,20.213 29.139,19.322C29.689,18.816 30.147,18.178 30.743,17.729C31.687,17.016 32.574,16.209 33.623,15.653C34.409,15.238 35.176,14.784 35.952,14.35C36.059,14.29 36.205,14.236 36.184,14.082C36.166,13.897 36,13.895 35.872,13.884C34.947,13.798 34.024,13.687 33.096,13.636C31.462,13.541 29.832,13.385 28.229,13.017C27.202,12.783 26.201,12.438 25.222,12.035C25.046,11.957 24.883,11.844 24.883,11.617C24.876,11.319 25.027,11.091 25.25,10.906C26.41,9.987 27.689,9.246 28.931,8.449C29.934,7.805 30.943,7.16 31.974,6.58C32.828,6.091 33.733,5.711 34.597,5.242C35.706,4.629 36.873,4.172 38.046,3.731C39.206,3.291 40.391,2.909 41.582,2.569C43.535,2.007 45.514,1.53 47.516,1.241C49.154,1.002 50.785,0.727 52.456,0.779C54.014,0.831 55.569,0.844 57.078,1.272C58.473,1.669 59.884,2.049 61.151,2.838C62.904,3.936 63.969,5.545 64.607,7.57C65.234,9.552 65.077,11.492 64.601,13.45Z" style="fill:rgb(167,13,22);fill-rule:nonzero;"/>
    </g>
</svg>
