<?xml version="1.0" encoding="UTF-8" standalone="no"?>
<!DOCTYPE svg PUBLIC "-//W3C//DTD SVG 1.1//EN" "http://www.w3.org/Graphics/SVG/1.1/DTD/svg11.dtd">
<svg width="100%" height="100%" viewBox="0 0 600 600" version="1.1" xmlns="http://www.w3.org/2000/svg" xmlns:xlink="http://www.w3.org/1999/xlink" xml:space="preserve" xmlns:serif="http://www.serif.com/" style="fill-rule:evenodd;clip-rule:evenodd;stroke-linejoin:round;stroke-miterlimit:2;">
    <g id="Artboard1" transform="matrix(12.5338,0,0,12.5511,20.9105,27.8326)">
        <rect x="-1.668" y="-2.218" width="47.871" height="47.805" style="fill:none;"/>
        <g transform="matrix(0.948335,0,0,0.986779,1.15042,0.286705)">
            <g transform="matrix(0.484122,0.949445,-0.989298,0.46462,42.2552,-20.8955)">
                <path d="M38.794,24.171C38.708,24.33 38.592,24.477 38.446,24.601L31.483,30.537C31.035,30.919 30.405,31.004 29.872,30.754C29.34,30.504 29.002,29.966 29.01,29.377L29.046,26.522C29.054,25.848 29.512,25.262 30.164,25.09C30.816,24.919 31.502,25.203 31.842,25.786L32.038,26.122L32.395,25.818L29.792,20.105C29.448,19.352 29.781,18.462 30.535,18.118C31.288,17.775 32.178,18.108 32.522,18.861L34.769,23.793L35.666,23.029L31.822,14.585C31.479,13.831 31.812,12.941 32.566,12.598C33.319,12.255 34.209,12.588 34.552,13.342L38.859,22.801C39.067,23.258 39.026,23.766 38.794,24.171ZM37.664,18.489C37.333,17.731 37.681,16.846 38.44,16.515C39.198,16.184 40.083,16.532 40.414,17.291L41.167,19.018C41.498,19.777 41.15,20.661 40.391,20.992C39.632,21.323 38.748,20.976 38.417,20.217L37.664,18.489Z" style="fill:rgb(68,42,125);stroke:white;stroke-width:0.08px;"/>
            </g>
            <g transform="matrix(1.09882,0.0723498,-0.0753867,1.05455,-6.16238,-16.2183)">
                <path d="M38.794,24.171C38.708,24.33 38.592,24.477 38.446,24.601L31.483,30.537C31.035,30.919 30.405,31.004 29.872,30.754C29.34,30.504 29.002,29.966 29.01,29.377L29.046,26.522C29.054,25.848 29.512,25.262 30.164,25.09C30.816,24.919 31.502,25.203 31.842,25.786L32.038,26.122L32.395,25.818L29.792,20.105C29.448,19.352 29.781,18.462 30.535,18.118C31.288,17.775 32.178,18.108 32.522,18.861L34.769,23.793L35.666,23.029L31.822,14.585C31.479,13.831 31.812,12.941 32.566,12.598C33.319,12.255 34.209,12.588 34.552,13.342L38.859,22.801C39.067,23.258 39.026,23.766 38.794,24.171ZM37.664,18.489C37.333,17.731 37.681,16.846 38.44,16.515C39.198,16.184 40.083,16.532 40.414,17.291L41.167,19.018C41.498,19.777 41.15,20.661 40.391,20.992C39.632,21.323 38.748,20.976 38.417,20.217L37.664,18.489Z" style="fill:rgb(68,42,125);"/>
            </g>
            <g transform="matrix(0.614696,-0.877095,0.913911,0.589933,-26.1505,26.362)">
                <path d="M38.794,24.171C38.708,24.33 38.592,24.477 38.446,24.601L31.483,30.537C31.035,30.919 30.405,31.004 29.872,30.754C29.34,30.504 29.002,29.966 29.01,29.377L29.046,26.522C29.054,25.848 29.512,25.262 30.164,25.09C30.816,24.919 31.502,25.203 31.842,25.786L32.038,26.122L32.395,25.818L29.792,20.105C29.448,19.352 29.781,18.462 30.535,18.118C31.288,17.775 32.178,18.108 32.522,18.861L34.769,23.793L35.666,23.029L31.822,14.585C31.479,13.831 31.812,12.941 32.566,12.598C33.319,12.255 34.209,12.588 34.552,13.342L38.859,22.801C39.067,23.258 39.026,23.766 38.794,24.171ZM37.664,18.489C37.333,17.731 37.681,16.846 38.44,16.515C39.198,16.184 40.083,16.532 40.414,17.291L41.167,19.018C41.498,19.777 41.15,20.661 40.391,20.992C39.632,21.323 38.748,20.976 38.417,20.217L37.664,18.489Z" style="fill:rgb(68,42,125);"/>
            </g>
            <g transform="matrix(-0.484122,-0.949445,0.989298,-0.46462,2.27886,64.265)">
                <path d="M38.794,24.171C38.708,24.33 38.592,24.477 38.446,24.601L31.483,30.537C31.035,30.919 30.405,31.004 29.872,30.754C29.34,30.504 29.002,29.966 29.01,29.377L29.046,26.522C29.054,25.848 29.512,25.262 30.164,25.09C30.816,24.919 31.502,25.203 31.842,25.786L32.038,26.122L32.395,25.818L29.792,20.105C29.448,19.352 29.781,18.462 30.535,18.118C31.288,17.775 32.178,18.108 32.522,18.861L34.769,23.793L35.666,23.029L31.822,14.585C31.479,13.831 31.812,12.941 32.566,12.598C33.319,12.255 34.209,12.588 34.552,13.342L38.859,22.801C39.067,23.258 39.026,23.766 38.794,24.171ZM37.664,18.489C37.333,17.731 37.681,16.846 38.44,16.515C39.198,16.184 40.083,16.532 40.414,17.291L41.167,19.018C41.498,19.777 41.15,20.661 40.391,20.992C39.632,21.323 38.748,20.976 38.417,20.217L37.664,18.489Z" style="fill:rgb(68,42,125);"/>
            </g>
            <g transform="matrix(-1.09882,-0.0723498,0.0753867,-1.05455,50.6964,59.5878)">
                <path d="M38.794,24.171C38.708,24.33 38.592,24.477 38.446,24.601L31.483,30.537C31.035,30.919 30.405,31.004 29.872,30.754C29.34,30.504 29.002,29.966 29.01,29.377L29.046,26.522C29.054,25.848 29.512,25.262 30.164,25.09C30.816,24.919 31.502,25.203 31.842,25.786L32.038,26.122L32.395,25.818L29.792,20.105C29.448,19.352 29.781,18.462 30.535,18.118C31.288,17.775 32.178,18.108 32.522,18.861L34.769,23.793L35.666,23.029L31.822,14.585C31.479,13.831 31.812,12.941 32.566,12.598C33.319,12.255 34.209,12.588 34.552,13.342L38.859,22.801C39.067,23.258 39.026,23.766 38.794,24.171ZM37.664,18.489C37.333,17.731 37.681,16.846 38.44,16.515C39.198,16.184 40.083,16.532 40.414,17.291L41.167,19.018C41.498,19.777 41.15,20.661 40.391,20.992C39.632,21.323 38.748,20.976 38.417,20.217L37.664,18.489Z" style="fill:rgb(68,42,125);"/>
            </g>
            <g transform="matrix(-0.614696,0.877095,-0.913911,-0.589933,70.6845,17.0075)">
                <path d="M38.794,24.171C38.708,24.33 38.592,24.477 38.446,24.601L31.483,30.537C31.035,30.919 30.405,31.004 29.872,30.754C29.34,30.504 29.002,29.966 29.01,29.377L29.046,26.522C29.054,25.848 29.512,25.262 30.164,25.09C30.816,24.919 31.502,25.203 31.842,25.786L32.038,26.122L32.395,25.818L29.792,20.105C29.448,19.352 29.781,18.462 30.535,18.118C31.288,17.775 32.178,18.108 32.522,18.861L34.769,23.793L35.666,23.029L31.822,14.585C31.479,13.831 31.812,12.941 32.566,12.598C33.319,12.255 34.209,12.588 34.552,13.342L38.859,22.801C39.067,23.258 39.026,23.766 38.794,24.171ZM37.664,18.489C37.333,17.731 37.681,16.846 38.44,16.515C39.198,16.184 40.083,16.532 40.414,17.291L41.167,19.018C41.498,19.777 41.15,20.661 40.391,20.992C39.632,21.323 38.748,20.976 38.417,20.217L37.664,18.489Z" style="fill:rgb(68,42,125);"/>
            </g>
        </g>
    </g>
</svg>
